<svg width="33" height="33" viewBox="0 0 33 33" fill="none" xmlns="http://www.w3.org/2000/svg">
<g id="Body &#226;&#134;&#146; Row &#226;&#134;&#146; Data &#226;&#134;&#146; Button &#226;&#134;&#146; SVG">
<path id="Vector" d="M13.6804 15.5523H15.6804V21.5523H13.6804V15.5523ZM17.6804 15.5523H19.6804V21.5523H17.6804V15.5523Z" fill="#F43F5E"/>
<path id="Vector_2" d="M20.6804 9.55231C20.6804 8.95231 20.2804 8.55231 19.6804 8.55231H13.6804C13.0804 8.55231 12.6804 8.95231 12.6804 9.55231V11.5523H8.68042V13.5523H9.68042V23.5523C9.68042 24.1523 10.0804 24.5523 10.6804 24.5523H22.6804C23.2804 24.5523 23.6804 24.1523 23.6804 23.5523V13.5523H24.6804V11.5523H20.6804V9.55231ZM14.6804 10.5523H18.6804V11.5523H14.6804V10.5523ZM21.6804 13.5523V22.5523H11.6804V13.5523H21.6804Z" fill="#F43F5E"/>
</g>
</svg>
